<?xml version="1.0" encoding="UTF-8"?> <svg xmlns="http://www.w3.org/2000/svg" width="56" height="56" viewBox="0 0 56 56" fill="none"><path fill-rule="evenodd" clip-rule="evenodd" d="M27.6131 16.6082C26.1496 13.7626 25.9464 10.9169 26.6374 8.39646C27.0846 6.77037 27.857 5.26623 28.8733 4.00601C29.8896 2.74579 31.1092 1.72948 32.4507 0.997738C34.2394 0.0627354 36.2314 -0.262483 38.0607 0.225345C38.2233 0.225345 38.3047 0.387954 38.3047 0.550563C38.142 5.26623 37.2883 8.84363 35.6216 11.4454C33.9549 14.0878 31.4344 15.7952 27.979 16.8115C27.8164 16.8521 27.6944 16.7708 27.6131 16.6082Z" fill="#FFF337"></path><path fill-rule="evenodd" clip-rule="evenodd" d="M36.2723 20.1852C37.7765 17.3396 40.053 15.5915 42.4921 14.6972C44.0776 14.128 45.785 13.9248 47.3704 14.0467C48.9965 14.1687 50.5413 14.6159 51.8828 15.307C53.6715 16.242 55.0537 17.7054 55.7041 19.4941C55.7448 19.6568 55.7041 19.7787 55.5822 19.86C51.5983 22.4211 48.1835 23.722 45.0532 23.8439C41.923 23.9659 39.0774 22.8683 36.313 20.5918C36.2317 20.5104 36.191 20.3478 36.2723 20.1852Z" fill="#FFF337"></path><path fill-rule="evenodd" clip-rule="evenodd" d="M19.8485 20.8771C16.6777 20.2266 14.3605 18.6005 12.8157 16.4866C11.7994 15.1044 11.149 13.5597 10.7831 11.9742C10.4172 10.3888 10.4172 8.76268 10.7018 7.2992C11.1083 5.30724 12.084 3.55919 13.5881 2.42092C13.71 2.33962 13.8727 2.33962 13.9946 2.46157C17.572 5.55115 19.8079 8.43746 20.8242 11.4051C21.8405 14.3727 21.5966 17.381 20.2144 20.7145C20.1331 20.7958 19.9705 20.8771 19.8485 20.8771Z" fill="#FFF337"></path><path fill-rule="evenodd" clip-rule="evenodd" d="M23.7515 36.3244C23.7921 39.536 22.6132 42.1784 20.8652 44.1297C19.7269 45.3899 18.3447 46.3655 16.8812 47.0566C15.4177 47.7071 13.8323 48.0729 12.3282 48.0729C10.2956 48.0729 8.38489 47.5038 6.96206 46.2029C6.84011 46.1216 6.84011 45.959 6.88076 45.8371C9.15729 41.6905 11.5558 38.8855 14.2388 37.3001C16.9625 35.7146 19.9708 35.3488 23.4669 35.9992C23.6702 36.0399 23.7515 36.1618 23.7515 36.3244Z" fill="#FFF337"></path><path fill-rule="evenodd" clip-rule="evenodd" d="M4.3195 30.1049C2.24624 28.5194 0.620144 26.1616 0.0103596 22.9907C-0.0302927 22.8281 0.0510119 22.7062 0.213621 22.6249C3.54711 21.2833 6.55538 21.0801 9.523 22.137C12.45 23.194 15.3363 25.4705 18.3852 29.0886C18.4665 29.2105 18.4665 29.3731 18.3852 29.4544C17.2469 30.9586 15.4582 31.9342 13.4663 32.3001C12.0028 32.5847 10.3767 32.544 8.79126 32.1782C7.20582 31.8123 5.66103 31.1212 4.3195 30.1049Z" fill="#FFF337"></path><path fill-rule="evenodd" clip-rule="evenodd" d="M33.0198 35.9988C35.459 38.0721 36.7192 40.6739 37.0444 43.2756C37.2477 44.9424 37.1257 46.6497 36.6379 48.1945C36.1907 49.7393 35.4183 51.1622 34.4427 52.3411C33.1418 53.8859 31.4344 54.9428 29.5644 55.1867C29.4018 55.1867 29.2798 55.1054 29.2392 54.9835C27.5724 50.5524 27.0439 46.9343 27.5724 43.8447C28.1415 40.7552 29.8083 38.2347 32.6133 35.9988C32.7353 35.8769 32.8979 35.9175 33.0198 35.9988Z" fill="#FFF337"></path><path fill-rule="evenodd" clip-rule="evenodd" d="M37.9389 29.2507C41.0691 28.5189 43.8741 29.0068 46.1506 30.267C47.6548 31.08 48.915 32.2183 49.8906 33.4785C50.8663 34.7794 51.5574 36.2022 51.9233 37.6657C52.4111 39.617 52.2485 41.609 51.3135 43.3164C51.2322 43.4383 51.1102 43.5196 50.9476 43.479C46.3945 42.1781 43.1424 40.5114 40.9878 38.2348C38.8332 35.9583 37.7763 33.1127 37.6543 29.5352C37.6949 29.4133 37.8169 29.2913 37.9389 29.2507Z" fill="#FFF337"></path></svg> 